<svg width="32" height="33" viewBox="0 0 32 33" fill="none" xmlns="http://www.w3.org/2000/svg">
<path d="M14.8467 23.94C15.5907 24.708 16.3107 25.476 17.0067 26.244C17.7267 26.988 18.4587 27.696 19.2027 28.368C19.9467 29.04 20.7387 29.652 21.5787 30.204C22.4187 30.78 23.3547 31.248 24.3867 31.608C24.4587 31.656 24.4947 31.704 24.4947 31.752C24.4947 31.824 24.4227 31.86 24.2787 31.86C23.1747 31.86 22.0827 31.56 21.0027 30.96C19.9467 30.384 18.9147 29.616 17.9067 28.656C16.9227 27.72 15.9627 26.652 15.0267 25.452C14.1147 24.252 13.2267 23.052 12.3627 21.852C11.5227 20.652 10.7187 19.512 9.95066 18.432C9.18266 17.328 8.46266 16.404 7.79066 15.66C7.76666 15.612 7.73066 15.564 7.68266 15.516C7.65866 15.468 7.64666 15.42 7.64666 15.372C7.93466 15.492 8.28266 15.744 8.69066 16.128C9.12266 16.488 9.54266 16.896 9.95066 17.352C10.3827 17.808 10.7787 18.264 11.1387 18.72C11.5227 19.176 11.8227 19.536 12.0387 19.8C12.8307 18.576 13.4307 17.244 13.8387 15.804C14.2467 14.34 14.4507 12.888 14.4507 11.448C14.4507 10.848 14.4027 10.176 14.3067 9.432C14.2107 8.688 14.0187 8.004 13.7307 7.38C13.4667 6.756 13.0827 6.228 12.5787 5.796C12.0747 5.364 11.4147 5.148 10.5987 5.148C9.68666 5.148 8.87066 5.328 8.15066 5.688C7.43066 6.024 6.78266 6.48 6.20666 7.056C5.65466 7.608 5.15066 8.232 4.69466 8.928C4.23866 9.624 3.83066 10.32 3.47066 11.016C3.25466 11.424 3.18266 11.412 3.25466 10.98C3.49466 10.188 3.84266 9.384 4.29866 8.568C4.77866 7.728 5.34266 6.984 5.99066 6.336C6.63866 5.664 7.34666 5.112 8.11466 4.68C8.90666 4.248 9.75866 4.032 10.6707 4.032C11.5587 4.032 12.3267 4.284 12.9747 4.788C13.6227 5.268 14.1387 5.88 14.5227 6.624C14.9307 7.344 15.2307 8.136 15.4227 9C15.6147 9.84 15.7107 10.608 15.7107 11.304C15.7107 13.008 15.4587 14.664 14.9547 16.272C14.4507 17.856 13.7067 19.344 12.7227 20.736L14.0187 22.752C15.3627 21.072 16.3707 19.296 17.0427 17.424C17.7147 15.552 18.0507 13.548 18.0507 11.412C18.0507 10.236 17.9427 9.072 17.7267 7.92C17.5347 6.768 17.1747 5.736 16.6467 4.824C16.1187 3.888 15.3987 3.132 14.4867 2.556C13.5747 1.98 12.4107 1.692 10.9947 1.692C9.74666 1.692 8.61866 1.932 7.61066 2.412C6.62666 2.868 5.75066 3.492 4.98266 4.284C4.23866 5.052 3.59066 5.952 3.03866 6.984C2.48666 7.992 2.03066 9.048 1.67066 10.152C1.33466 11.256 1.08266 12.384 0.914656 13.536C0.770656 14.664 0.698656 15.72 0.698656 16.704C0.698656 17.4 0.746656 18.048 0.842656 18.648C0.938656 19.224 1.02266 19.788 1.09466 20.34C1.14266 20.676 1.11866 20.796 1.02266 20.7C0.950656 20.58 0.890656 20.46 0.842656 20.34C0.506656 19.524 0.314656 18.648 0.266656 17.712C0.218656 16.752 0.194656 15.816 0.194656 14.904C0.194656 13.224 0.398656 11.544 0.806656 9.864C1.21466 8.184 1.86266 6.672 2.75066 5.328C3.63866 3.96 4.77866 2.856 6.17066 2.016C7.56266 1.152 9.25466 0.719999 11.2467 0.719999C12.6387 0.719999 13.8267 1.02 14.8107 1.62C15.8187 2.22 16.6347 3 17.2587 3.96C17.9067 4.92 18.3747 6 18.6627 7.2C18.9747 8.4 19.1307 9.588 19.1307 10.764C19.1307 13.02 18.8067 15.192 18.1587 17.28C17.5347 19.368 16.5147 21.312 15.0987 23.112C15.0267 23.232 14.9547 23.34 14.8827 23.436C14.8107 23.532 14.7387 23.64 14.6667 23.76L14.8467 23.94ZM6.24266 16.2C5.76266 16.2 5.36666 16.308 5.05466 16.524C4.74266 16.74 4.49066 17.016 4.29866 17.352C4.10666 17.688 3.97466 18.06 3.90266 18.468C3.83066 18.852 3.79466 19.224 3.79466 19.584C3.79466 20.184 3.86666 20.82 4.01066 21.492C4.15466 22.14 4.37066 22.752 4.65866 23.328C4.97066 23.88 5.37866 24.336 5.88266 24.696C6.38666 25.056 6.99866 25.236 7.71866 25.236C8.34266 25.236 8.99066 25.116 9.66266 24.876C9.61466 24.732 9.56666 24.588 9.51866 24.444C9.47066 24.3 9.42266 24.144 9.37466 23.976C9.11066 24.168 8.79866 24.324 8.43866 24.444C8.07866 24.54 7.73066 24.588 7.39466 24.588C7.17866 24.588 6.93866 24.54 6.67466 24.444C6.41066 24.324 6.15866 24.18 5.91866 24.012C5.67866 23.82 5.47466 23.616 5.30666 23.4C5.13866 23.16 5.05466 22.932 5.05466 22.716V22.644H5.09066C5.35466 22.956 5.65466 23.256 5.99066 23.544C6.35066 23.808 6.74666 23.94 7.17866 23.94C7.53866 23.94 7.87466 23.868 8.18666 23.724C8.52266 23.58 8.82266 23.412 9.08666 23.22C8.87066 22.212 8.59466 21.24 8.25866 20.304C7.92266 19.368 7.57466 18.408 7.21466 17.424C7.09466 17.208 7.05866 17.088 7.10666 17.064C7.15466 17.04 7.23866 17.112 7.35866 17.28C8.00666 18.12 8.51066 18.996 8.87066 19.908C9.25466 20.796 9.65066 21.708 10.0587 22.644C10.5627 23.82 11.1747 24.912 11.8947 25.92C12.6147 26.928 13.3827 27.864 14.1987 28.728C15.0387 29.664 15.8907 30.432 16.7547 31.032C17.6187 31.632 18.6147 32.22 19.7427 32.796C19.8387 32.844 19.8747 32.88 19.8507 32.904C19.8507 32.928 19.8147 32.94 19.7427 32.94C19.6707 32.964 19.5867 32.976 19.4907 32.976C19.4187 32.976 19.3707 32.976 19.3467 32.976C18.6507 32.976 17.8827 32.724 17.0427 32.22C16.2267 31.74 15.4227 31.164 14.6307 30.492C13.8387 29.844 13.0947 29.172 12.3987 28.476C11.7267 27.78 11.1867 27.228 10.7787 26.82L10.7067 26.748C10.2267 26.868 9.74666 26.94 9.26666 26.964C8.81066 26.988 8.34266 27 7.86266 27C6.85466 27 5.96666 26.844 5.19866 26.532C4.45466 26.196 3.83066 25.74 3.32666 25.164C2.82266 24.588 2.45066 23.916 2.21066 23.148C1.97066 22.356 1.85066 21.504 1.85066 20.592C1.85066 20.16 1.88666 19.704 1.95866 19.224C2.05466 18.72 2.18666 18.24 2.35466 17.784C2.52266 17.328 2.73866 16.908 3.00266 16.524C3.29066 16.116 3.61466 15.78 3.97466 15.516C4.02266 15.492 4.05866 15.468 4.08266 15.444C4.13066 15.396 4.16666 15.372 4.19066 15.372C4.23866 15.372 4.26266 15.384 4.26266 15.408C4.26266 15.48 4.21466 15.576 4.11866 15.696C4.02266 15.792 3.95066 15.864 3.90266 15.912C3.42266 16.464 3.06266 17.112 2.82266 17.856C2.58266 18.6 2.46266 19.332 2.46266 20.052C2.46266 20.82 2.57066 21.588 2.78666 22.356C3.02666 23.124 3.36266 23.82 3.79466 24.444C4.25066 25.044 4.81466 25.536 5.48666 25.92C6.15866 26.304 6.92666 26.496 7.79066 26.496C8.22266 26.496 8.64266 26.448 9.05066 26.352C9.45866 26.232 9.85466 26.1 10.2387 25.956L9.84266 25.308C9.50666 25.476 9.15866 25.608 8.79866 25.704C8.43866 25.8 8.07866 25.848 7.71866 25.848C6.87866 25.848 6.15866 25.644 5.55866 25.236C4.98266 24.828 4.50266 24.312 4.11866 23.688C3.73466 23.04 3.44666 22.344 3.25466 21.6C3.08666 20.856 3.00266 20.136 3.00266 19.44C3.00266 19.008 3.05066 18.564 3.14666 18.108C3.26666 17.652 3.43466 17.244 3.65066 16.884C3.89066 16.524 4.20266 16.236 4.58666 16.02C4.97066 15.78 5.43866 15.66 5.99066 15.66C6.49466 15.66 7.02266 15.9 7.57466 16.38C8.12666 16.86 8.63066 17.436 9.08666 18.108C9.56666 18.756 9.95066 19.428 10.2387 20.124C10.5507 20.796 10.7067 21.348 10.7067 21.78L10.5987 21.96C10.5267 21.984 10.4547 21.96 10.3827 21.888C10.3107 21.816 10.2507 21.732 10.2027 21.636C10.1547 21.54 10.1067 21.444 10.0587 21.348C10.0347 21.252 10.0107 21.18 9.98666 21.132C9.84266 20.82 9.65066 20.388 9.41066 19.836C9.19466 19.284 8.93066 18.744 8.61866 18.216C8.30666 17.664 7.94666 17.196 7.53866 16.812C7.15466 16.404 6.72266 16.2 6.24266 16.2ZM1.34666 18.18C1.32266 17.916 1.31066 17.64 1.31066 17.352C1.31066 17.064 1.31066 16.8 1.31066 16.56C1.31066 15.096 1.46666 13.536 1.77866 11.88C2.11466 10.224 2.65466 8.688 3.39866 7.272C4.16666 5.856 5.16266 4.68 6.38666 3.744C7.63466 2.808 9.15866 2.34 10.9587 2.34C12.1587 2.34 13.1547 2.604 13.9467 3.132C14.7627 3.636 15.4107 4.296 15.8907 5.112C16.3707 5.928 16.7067 6.84 16.8987 7.848C17.1147 8.856 17.2227 9.852 17.2227 10.836C17.2227 11.988 17.1267 13.08 16.9347 14.112C16.7667 15.12 16.4547 16.128 15.9987 17.136C15.8307 17.52 15.7227 17.7 15.6747 17.676C15.6507 17.652 15.6747 17.46 15.7467 17.1C15.9387 16.236 16.0947 15.372 16.2147 14.508C16.3347 13.644 16.3947 12.756 16.3947 11.844C16.3947 11.028 16.3227 10.128 16.1787 9.144C16.0347 8.136 15.7587 7.2 15.3507 6.336C14.9667 5.472 14.4267 4.752 13.7307 4.176C13.0587 3.6 12.1827 3.312 11.1027 3.312C9.95066 3.336 8.93066 3.552 8.04266 3.96C7.17866 4.344 6.41066 4.884 5.73866 5.58C5.06666 6.252 4.49066 7.032 4.01066 7.92C3.55466 8.808 3.17066 9.756 2.85866 10.764C2.45066 12.012 2.16266 13.284 1.99466 14.58C1.85066 15.852 1.71866 17.064 1.59866 18.216C1.55066 18.6 1.50266 18.768 1.45466 18.72C1.43066 18.648 1.39466 18.468 1.34666 18.18ZM12.2907 24.444C12.4587 24.564 12.6987 24.768 13.0107 25.056C13.3467 25.32 13.6947 25.608 14.0547 25.92C14.4147 26.232 14.7507 26.532 15.0627 26.82C15.3747 27.108 15.5907 27.324 15.7107 27.468C16.0947 27.9 16.5867 28.368 17.1867 28.872C17.8107 29.376 18.4707 29.844 19.1667 30.276C19.8627 30.732 20.5587 31.128 21.2547 31.464C21.9507 31.824 22.5747 32.064 23.1267 32.184C23.3667 32.232 23.4627 32.28 23.4147 32.328C23.3667 32.376 23.2587 32.412 23.0907 32.436C22.9227 32.484 22.7427 32.52 22.5507 32.544C22.3587 32.568 22.2387 32.58 22.1907 32.58C21.1827 32.58 20.1747 32.328 19.1667 31.824C18.1827 31.344 17.2467 30.732 16.3587 29.988C15.4707 29.268 14.6787 28.464 13.9827 27.576C13.3107 26.712 12.7947 25.896 12.4347 25.128C12.4107 25.08 12.3747 24.996 12.3267 24.876C12.3027 24.756 12.2907 24.672 12.2907 24.624V24.444ZM29.3625 6.732C29.2905 7.668 29.0145 8.484 28.5345 9.18C28.0785 9.852 27.6345 10.452 27.2025 10.98C27.1545 11.028 27.0465 11.136 26.8785 11.304C26.7345 11.448 26.6385 11.496 26.5905 11.448C26.5185 11.424 26.5305 11.328 26.6265 11.16C26.7225 10.968 26.7945 10.824 26.8425 10.728C27.2745 10.032 27.6105 9.276 27.8505 8.46C28.1145 7.62 28.1985 6.84 28.1025 6.12C28.0065 5.4 27.6945 4.788 27.1665 4.284C26.6385 3.78 25.7985 3.492 24.6465 3.42C24.0225 3.396 23.4585 3.48 22.9545 3.672C22.4745 3.864 22.0545 4.116 21.6945 4.428C21.3585 4.716 21.1065 5.016 20.9385 5.328C20.7945 5.64 20.7585 5.904 20.8305 6.12C20.8785 6.264 20.8905 6.36 20.8665 6.408C20.8665 6.432 20.8425 6.432 20.7945 6.408C20.7705 6.384 20.7345 6.348 20.6865 6.3C20.6385 6.228 20.6025 6.168 20.5785 6.12C20.4825 5.952 20.4345 5.736 20.4345 5.472C20.4345 5.184 20.4825 4.884 20.5785 4.572C20.6745 4.26 20.8305 3.96 21.0465 3.672C21.2625 3.36 21.5385 3.084 21.8745 2.844C22.6425 2.292 23.4825 2.016 24.3945 2.016C25.3065 1.992 26.1345 2.184 26.8785 2.592C27.6465 2.976 28.2705 3.54 28.7505 4.284C29.2305 5.004 29.4345 5.82 29.3625 6.732ZM29.5065 11.808C28.6905 12.936 27.8265 13.992 26.9145 14.976C26.0025 15.96 25.3185 16.848 24.8625 17.64C24.8145 17.736 24.7665 17.832 24.7185 17.928C24.6705 18 24.6225 18.012 24.5745 17.964C24.5025 17.94 24.4785 17.88 24.5025 17.784C24.5505 17.664 24.5985 17.544 24.6465 17.424C24.8625 16.584 25.2225 15.756 25.7265 14.94C26.2305 14.124 26.7825 13.296 27.3825 12.456C27.6705 12.072 27.9705 11.664 28.2825 11.232C28.6185 10.776 28.9185 10.296 29.1825 9.792C29.4465 9.264 29.6505 8.688 29.7945 8.064C29.9385 7.44 29.9745 6.768 29.9025 6.048C29.8065 5.088 29.4585 4.26 28.8585 3.564C28.2585 2.844 27.5385 2.304 26.6985 1.944C25.8825 1.584 24.9945 1.428 24.0345 1.476C23.0745 1.524 22.1865 1.812 21.3705 2.34C21.2265 2.46 21.1425 2.508 21.1185 2.484C21.0705 2.388 21.1065 2.28 21.2265 2.16C21.4905 1.776 21.9345 1.452 22.5585 1.188C23.2065 0.899999 23.9265 0.755999 24.7185 0.755999C25.5345 0.731999 26.3745 0.875999 27.2385 1.188C28.1265 1.5 28.9545 2.064 29.7225 2.88C30.1065 3.288 30.4065 3.732 30.6225 4.212C30.8385 4.692 30.9825 5.184 31.0545 5.688C31.1505 6.192 31.1865 6.696 31.1625 7.2C31.1625 7.68 31.1265 8.112 31.0545 8.496C30.7905 9.264 30.5145 9.912 30.2265 10.44C29.9385 10.968 29.6985 11.424 29.5065 11.808ZM24.4665 19.692C24.6585 19.668 24.7305 19.68 24.6825 19.728L24.5745 19.836C24.1185 20.028 23.6385 20.028 23.1345 19.836C22.6545 19.62 22.2945 19.2 22.0545 18.576C21.8385 17.952 21.7425 17.316 21.7665 16.668C21.8145 16.02 21.9345 15.408 22.1265 14.832C22.2945 14.256 22.4985 13.716 22.7385 13.212C23.0025 12.684 23.2785 12.18 23.5665 11.7C23.8545 11.22 24.1425 10.764 24.4305 10.332C24.7185 9.9 24.9825 9.492 25.2225 9.108C25.8465 8.1 26.1945 7.308 26.2665 6.732C26.3625 6.156 26.0025 5.628 25.1865 5.148C24.7305 4.98 24.2865 4.92 23.8545 4.968C23.4225 4.992 23.0385 5.1 22.7025 5.292C22.3665 5.484 22.1025 5.736 21.9105 6.048C21.7425 6.36 21.6945 6.708 21.7665 7.092C21.7905 7.236 21.7665 7.272 21.6945 7.2C21.6225 7.128 21.5625 7.068 21.5145 7.02C21.2505 6.588 21.2025 6.144 21.3705 5.688C21.5625 5.232 21.8745 4.848 22.3065 4.536C22.7625 4.2 23.2905 3.984 23.8905 3.888C24.5145 3.792 25.1265 3.9 25.7265 4.212C26.3505 4.524 26.7825 4.908 27.0225 5.364C27.2865 5.82 27.3945 6.312 27.3465 6.84C27.3225 7.344 27.1665 7.884 26.8785 8.46C26.6145 9.036 26.2905 9.588 25.9065 10.116C25.3545 10.836 24.8385 11.64 24.3585 12.528C23.9025 13.392 23.4705 14.316 23.0625 15.3C22.8705 15.78 22.7505 16.296 22.7025 16.848C22.6785 17.4 22.7265 17.916 22.8465 18.396C22.9665 18.852 23.1585 19.212 23.4225 19.476C23.7105 19.74 24.0585 19.812 24.4665 19.692ZM24.0345 18.288C24.1545 18.648 24.3105 18.864 24.5025 18.936C24.6945 19.008 24.8625 19.044 25.0065 19.044C25.1265 19.044 25.1985 19.068 25.2225 19.116C25.2705 19.164 25.2225 19.212 25.0785 19.26C24.9825 19.284 24.8505 19.32 24.6825 19.368C24.5145 19.416 24.3345 19.428 24.1425 19.404C23.9745 19.356 23.7945 19.272 23.6025 19.152C23.4345 19.008 23.3025 18.768 23.2065 18.432C23.1105 18.144 23.0985 17.784 23.1705 17.352C23.2665 16.92 23.3865 16.512 23.5305 16.128C23.6985 15.72 23.8665 15.384 24.0345 15.12C24.2025 14.832 24.3345 14.712 24.4305 14.76C24.4545 14.784 24.4545 14.868 24.4305 15.012C24.4305 15.132 24.4065 15.276 24.3585 15.444C24.3105 15.588 24.2625 15.744 24.2145 15.912C24.1665 16.056 24.1425 16.164 24.1425 16.236C24.0705 16.668 24.0105 17.028 23.9625 17.316C23.9145 17.604 23.9385 17.928 24.0345 18.288ZM23.6385 26.82C23.1105 26.916 22.5825 26.892 22.0545 26.748C21.5265 26.604 21.2025 26.412 21.0825 26.172C21.0345 26.1 21.0345 26.016 21.0825 25.92C21.1545 25.824 21.2505 25.776 21.3705 25.776C21.5865 25.776 21.7665 25.788 21.9105 25.812C22.0545 25.836 22.1985 25.86 22.3425 25.884C22.4865 25.884 22.6425 25.872 22.8105 25.848C23.0025 25.824 23.2305 25.764 23.4945 25.668C23.7585 25.572 24.0345 25.368 24.3225 25.056C24.6345 24.744 24.8505 24.336 24.9705 23.832C24.9705 23.76 25.0185 23.724 25.1145 23.724C25.2105 23.724 25.2825 23.76 25.3305 23.832C25.4985 24.264 25.5465 24.648 25.4745 24.984C25.4265 25.32 25.3065 25.62 25.1145 25.884C24.9225 26.124 24.6825 26.328 24.3945 26.496C24.1305 26.664 23.8785 26.772 23.6385 26.82ZM23.6745 24.84C23.3865 25.056 23.0985 25.152 22.8105 25.128C22.5225 25.08 22.2465 24.984 21.9825 24.84C21.9345 24.84 21.8745 24.816 21.8025 24.768C21.7545 24.72 21.7065 24.66 21.6585 24.588C21.6345 24.54 21.6345 24.492 21.6585 24.444C21.7065 24.372 21.7545 24.324 21.8025 24.3C21.9225 24.228 22.0425 24.18 22.1625 24.156C22.3065 24.132 22.4385 24.06 22.5585 23.94C22.7505 23.82 22.8945 23.676 22.9905 23.508C23.1105 23.316 23.2065 23.148 23.2785 23.004C23.3745 22.86 23.4465 22.752 23.4945 22.68C23.5665 22.584 23.6625 22.548 23.7825 22.572C24.0225 22.644 24.1785 22.776 24.2505 22.968C24.3225 23.16 24.3345 23.376 24.2865 23.616C24.2625 23.856 24.1905 24.096 24.0705 24.336C23.9505 24.552 23.8185 24.72 23.6745 24.84ZM22.1265 22.86C22.2465 22.74 22.3785 22.656 22.5225 22.608C22.6665 22.56 22.7625 22.56 22.8105 22.608C22.8825 22.68 22.8945 22.8 22.8465 22.968C22.7985 23.112 22.7145 23.244 22.5945 23.364C22.4985 23.46 22.3905 23.532 22.2705 23.58C22.1505 23.604 22.0545 23.592 21.9825 23.544C21.9345 23.496 21.9105 23.4 21.9105 23.256C21.9345 23.112 22.0065 22.98 22.1265 22.86Z" fill="#A670ED"/>
</svg>
