<svg width="143" height="37" viewBox="0 0 143 37" fill="none" xmlns="http://www.w3.org/2000/svg">
<path d="M15.8467 23.94C16.5907 24.708 17.3107 25.476 18.0067 26.244C18.7267 26.988 19.4587 27.696 20.2027 28.368C20.9467 29.04 21.7387 29.652 22.5787 30.204C23.4187 30.78 24.3547 31.248 25.3867 31.608C25.4587 31.656 25.4947 31.704 25.4947 31.752C25.4947 31.824 25.4227 31.86 25.2787 31.86C24.1747 31.86 23.0827 31.56 22.0027 30.96C20.9467 30.384 19.9147 29.616 18.9067 28.656C17.9227 27.72 16.9627 26.652 16.0267 25.452C15.1147 24.252 14.2267 23.052 13.3627 21.852C12.5227 20.652 11.7187 19.512 10.9507 18.432C10.1827 17.328 9.46266 16.404 8.79066 15.66C8.76666 15.612 8.73066 15.564 8.68266 15.516C8.65866 15.468 8.64666 15.42 8.64666 15.372C8.93466 15.492 9.28266 15.744 9.69066 16.128C10.1227 16.488 10.5427 16.896 10.9507 17.352C11.3827 17.808 11.7787 18.264 12.1387 18.72C12.5227 19.176 12.8227 19.536 13.0387 19.8C13.8307 18.576 14.4307 17.244 14.8387 15.804C15.2467 14.34 15.4507 12.888 15.4507 11.448C15.4507 10.848 15.4027 10.176 15.3067 9.432C15.2107 8.688 15.0187 8.004 14.7307 7.38C14.4667 6.756 14.0827 6.228 13.5787 5.796C13.0747 5.364 12.4147 5.148 11.5987 5.148C10.6867 5.148 9.87066 5.328 9.15066 5.688C8.43066 6.024 7.78266 6.48 7.20666 7.056C6.65466 7.608 6.15066 8.232 5.69466 8.928C5.23866 9.624 4.83066 10.32 4.47066 11.016C4.25466 11.424 4.18266 11.412 4.25466 10.98C4.49466 10.188 4.84266 9.384 5.29866 8.568C5.77866 7.728 6.34266 6.984 6.99066 6.336C7.63866 5.664 8.34666 5.112 9.11466 4.68C9.90666 4.248 10.7587 4.032 11.6707 4.032C12.5587 4.032 13.3267 4.284 13.9747 4.788C14.6227 5.268 15.1387 5.88 15.5227 6.624C15.9307 7.344 16.2307 8.136 16.4227 9C16.6147 9.84 16.7107 10.608 16.7107 11.304C16.7107 13.008 16.4587 14.664 15.9547 16.272C15.4507 17.856 14.7067 19.344 13.7227 20.736L15.0187 22.752C16.3627 21.072 17.3707 19.296 18.0427 17.424C18.7147 15.552 19.0507 13.548 19.0507 11.412C19.0507 10.236 18.9427 9.072 18.7267 7.92C18.5347 6.768 18.1747 5.736 17.6467 4.824C17.1187 3.888 16.3987 3.132 15.4867 2.556C14.5747 1.98 13.4107 1.692 11.9947 1.692C10.7467 1.692 9.61866 1.932 8.61066 2.412C7.62666 2.868 6.75066 3.492 5.98266 4.284C5.23866 5.052 4.59066 5.952 4.03866 6.984C3.48666 7.992 3.03066 9.048 2.67066 10.152C2.33466 11.256 2.08266 12.384 1.91466 13.536C1.77066 14.664 1.69866 15.72 1.69866 16.704C1.69866 17.4 1.74666 18.048 1.84266 18.648C1.93866 19.224 2.02266 19.788 2.09466 20.34C2.14266 20.676 2.11866 20.796 2.02266 20.7C1.95066 20.58 1.89066 20.46 1.84266 20.34C1.50666 19.524 1.31466 18.648 1.26666 17.712C1.21866 16.752 1.19466 15.816 1.19466 14.904C1.19466 13.224 1.39866 11.544 1.80666 9.864C2.21466 8.184 2.86266 6.672 3.75066 5.328C4.63866 3.96 5.77866 2.856 7.17066 2.016C8.56266 1.152 10.2547 0.719999 12.2467 0.719999C13.6387 0.719999 14.8267 1.02 15.8107 1.62C16.8187 2.22 17.6347 3 18.2587 3.96C18.9067 4.92 19.3747 6 19.6627 7.2C19.9747 8.4 20.1307 9.588 20.1307 10.764C20.1307 13.02 19.8067 15.192 19.1587 17.28C18.5347 19.368 17.5147 21.312 16.0987 23.112C16.0267 23.232 15.9547 23.34 15.8827 23.436C15.8107 23.532 15.7387 23.64 15.6667 23.76L15.8467 23.94ZM7.24266 16.2C6.76266 16.2 6.36666 16.308 6.05466 16.524C5.74266 16.74 5.49066 17.016 5.29866 17.352C5.10666 17.688 4.97466 18.06 4.90266 18.468C4.83066 18.852 4.79466 19.224 4.79466 19.584C4.79466 20.184 4.86666 20.82 5.01066 21.492C5.15466 22.14 5.37066 22.752 5.65866 23.328C5.97066 23.88 6.37866 24.336 6.88266 24.696C7.38666 25.056 7.99866 25.236 8.71866 25.236C9.34266 25.236 9.99066 25.116 10.6627 24.876C10.6147 24.732 10.5667 24.588 10.5187 24.444C10.4707 24.3 10.4227 24.144 10.3747 23.976C10.1107 24.168 9.79866 24.324 9.43866 24.444C9.07866 24.54 8.73066 24.588 8.39466 24.588C8.17866 24.588 7.93866 24.54 7.67466 24.444C7.41066 24.324 7.15866 24.18 6.91866 24.012C6.67866 23.82 6.47466 23.616 6.30666 23.4C6.13866 23.16 6.05466 22.932 6.05466 22.716V22.644H6.09066C6.35466 22.956 6.65466 23.256 6.99066 23.544C7.35066 23.808 7.74666 23.94 8.17866 23.94C8.53866 23.94 8.87466 23.868 9.18666 23.724C9.52266 23.58 9.82266 23.412 10.0867 23.22C9.87066 22.212 9.59466 21.24 9.25866 20.304C8.92266 19.368 8.57466 18.408 8.21466 17.424C8.09466 17.208 8.05866 17.088 8.10666 17.064C8.15466 17.04 8.23866 17.112 8.35866 17.28C9.00666 18.12 9.51066 18.996 9.87066 19.908C10.2547 20.796 10.6507 21.708 11.0587 22.644C11.5627 23.82 12.1747 24.912 12.8947 25.92C13.6147 26.928 14.3827 27.864 15.1987 28.728C16.0387 29.664 16.8907 30.432 17.7547 31.032C18.6187 31.632 19.6147 32.22 20.7427 32.796C20.8387 32.844 20.8747 32.88 20.8507 32.904C20.8507 32.928 20.8147 32.94 20.7427 32.94C20.6707 32.964 20.5867 32.976 20.4907 32.976C20.4187 32.976 20.3707 32.976 20.3467 32.976C19.6507 32.976 18.8827 32.724 18.0427 32.22C17.2267 31.74 16.4227 31.164 15.6307 30.492C14.8387 29.844 14.0947 29.172 13.3987 28.476C12.7267 27.78 12.1867 27.228 11.7787 26.82L11.7067 26.748C11.2267 26.868 10.7467 26.94 10.2667 26.964C9.81066 26.988 9.34266 27 8.86266 27C7.85466 27 6.96666 26.844 6.19866 26.532C5.45466 26.196 4.83066 25.74 4.32666 25.164C3.82266 24.588 3.45066 23.916 3.21066 23.148C2.97066 22.356 2.85066 21.504 2.85066 20.592C2.85066 20.16 2.88666 19.704 2.95866 19.224C3.05466 18.72 3.18666 18.24 3.35466 17.784C3.52266 17.328 3.73866 16.908 4.00266 16.524C4.29066 16.116 4.61466 15.78 4.97466 15.516C5.02266 15.492 5.05866 15.468 5.08266 15.444C5.13066 15.396 5.16666 15.372 5.19066 15.372C5.23866 15.372 5.26266 15.384 5.26266 15.408C5.26266 15.48 5.21466 15.576 5.11866 15.696C5.02266 15.792 4.95066 15.864 4.90266 15.912C4.42266 16.464 4.06266 17.112 3.82266 17.856C3.58266 18.6 3.46266 19.332 3.46266 20.052C3.46266 20.82 3.57066 21.588 3.78666 22.356C4.02666 23.124 4.36266 23.82 4.79466 24.444C5.25066 25.044 5.81466 25.536 6.48666 25.92C7.15866 26.304 7.92666 26.496 8.79066 26.496C9.22266 26.496 9.64266 26.448 10.0507 26.352C10.4587 26.232 10.8547 26.1 11.2387 25.956L10.8427 25.308C10.5067 25.476 10.1587 25.608 9.79866 25.704C9.43866 25.8 9.07866 25.848 8.71866 25.848C7.87866 25.848 7.15866 25.644 6.55866 25.236C5.98266 24.828 5.50266 24.312 5.11866 23.688C4.73466 23.04 4.44666 22.344 4.25466 21.6C4.08666 20.856 4.00266 20.136 4.00266 19.44C4.00266 19.008 4.05066 18.564 4.14666 18.108C4.26666 17.652 4.43466 17.244 4.65066 16.884C4.89066 16.524 5.20266 16.236 5.58666 16.02C5.97066 15.78 6.43866 15.66 6.99066 15.66C7.49466 15.66 8.02266 15.9 8.57466 16.38C9.12666 16.86 9.63066 17.436 10.0867 18.108C10.5667 18.756 10.9507 19.428 11.2387 20.124C11.5507 20.796 11.7067 21.348 11.7067 21.78L11.5987 21.96C11.5267 21.984 11.4547 21.96 11.3827 21.888C11.3107 21.816 11.2507 21.732 11.2027 21.636C11.1547 21.54 11.1067 21.444 11.0587 21.348C11.0347 21.252 11.0107 21.18 10.9867 21.132C10.8427 20.82 10.6507 20.388 10.4107 19.836C10.1947 19.284 9.93066 18.744 9.61866 18.216C9.30666 17.664 8.94666 17.196 8.53866 16.812C8.15466 16.404 7.72266 16.2 7.24266 16.2ZM2.34666 18.18C2.32266 17.916 2.31066 17.64 2.31066 17.352C2.31066 17.064 2.31066 16.8 2.31066 16.56C2.31066 15.096 2.46666 13.536 2.77866 11.88C3.11466 10.224 3.65466 8.688 4.39866 7.272C5.16666 5.856 6.16266 4.68 7.38666 3.744C8.63466 2.808 10.1587 2.34 11.9587 2.34C13.1587 2.34 14.1547 2.604 14.9467 3.132C15.7627 3.636 16.4107 4.296 16.8907 5.112C17.3707 5.928 17.7067 6.84 17.8987 7.848C18.1147 8.856 18.2227 9.852 18.2227 10.836C18.2227 11.988 18.1267 13.08 17.9347 14.112C17.7667 15.12 17.4547 16.128 16.9987 17.136C16.8307 17.52 16.7227 17.7 16.6747 17.676C16.6507 17.652 16.6747 17.46 16.7467 17.1C16.9387 16.236 17.0947 15.372 17.2147 14.508C17.3347 13.644 17.3947 12.756 17.3947 11.844C17.3947 11.028 17.3227 10.128 17.1787 9.144C17.0347 8.136 16.7587 7.2 16.3507 6.336C15.9667 5.472 15.4267 4.752 14.7307 4.176C14.0587 3.6 13.1827 3.312 12.1027 3.312C10.9507 3.336 9.93066 3.552 9.04266 3.96C8.17866 4.344 7.41066 4.884 6.73866 5.58C6.06666 6.252 5.49066 7.032 5.01066 7.92C4.55466 8.808 4.17066 9.756 3.85866 10.764C3.45066 12.012 3.16266 13.284 2.99466 14.58C2.85066 15.852 2.71866 17.064 2.59866 18.216C2.55066 18.6 2.50266 18.768 2.45466 18.72C2.43066 18.648 2.39466 18.468 2.34666 18.18ZM13.2907 24.444C13.4587 24.564 13.6987 24.768 14.0107 25.056C14.3467 25.32 14.6947 25.608 15.0547 25.92C15.4147 26.232 15.7507 26.532 16.0627 26.82C16.3747 27.108 16.5907 27.324 16.7107 27.468C17.0947 27.9 17.5867 28.368 18.1867 28.872C18.8107 29.376 19.4707 29.844 20.1667 30.276C20.8627 30.732 21.5587 31.128 22.2547 31.464C22.9507 31.824 23.5747 32.064 24.1267 32.184C24.3667 32.232 24.4627 32.28 24.4147 32.328C24.3667 32.376 24.2587 32.412 24.0907 32.436C23.9227 32.484 23.7427 32.52 23.5507 32.544C23.3587 32.568 23.2387 32.58 23.1907 32.58C22.1827 32.58 21.1747 32.328 20.1667 31.824C19.1827 31.344 18.2467 30.732 17.3587 29.988C16.4707 29.268 15.6787 28.464 14.9827 27.576C14.3107 26.712 13.7947 25.896 13.4347 25.128C13.4107 25.08 13.3747 24.996 13.3267 24.876C13.3027 24.756 13.2907 24.672 13.2907 24.624V24.444ZM30.3625 6.732C30.2905 7.668 30.0145 8.484 29.5345 9.18C29.0785 9.852 28.6345 10.452 28.2025 10.98C28.1545 11.028 28.0465 11.136 27.8785 11.304C27.7345 11.448 27.6385 11.496 27.5905 11.448C27.5185 11.424 27.5305 11.328 27.6265 11.16C27.7225 10.968 27.7945 10.824 27.8425 10.728C28.2745 10.032 28.6105 9.276 28.8505 8.46C29.1145 7.62 29.1985 6.84 29.1025 6.12C29.0065 5.4 28.6945 4.788 28.1665 4.284C27.6385 3.78 26.7985 3.492 25.6465 3.42C25.0225 3.396 24.4585 3.48 23.9545 3.672C23.4745 3.864 23.0545 4.116 22.6945 4.428C22.3585 4.716 22.1065 5.016 21.9385 5.328C21.7945 5.64 21.7585 5.904 21.8305 6.12C21.8785 6.264 21.8905 6.36 21.8665 6.408C21.8665 6.432 21.8425 6.432 21.7945 6.408C21.7705 6.384 21.7345 6.348 21.6865 6.3C21.6385 6.228 21.6025 6.168 21.5785 6.12C21.4825 5.952 21.4345 5.736 21.4345 5.472C21.4345 5.184 21.4825 4.884 21.5785 4.572C21.6745 4.26 21.8305 3.96 22.0465 3.672C22.2625 3.36 22.5385 3.084 22.8745 2.844C23.6425 2.292 24.4825 2.016 25.3945 2.016C26.3065 1.992 27.1345 2.184 27.8785 2.592C28.6465 2.976 29.2705 3.54 29.7505 4.284C30.2305 5.004 30.4345 5.82 30.3625 6.732ZM30.5065 11.808C29.6905 12.936 28.8265 13.992 27.9145 14.976C27.0025 15.96 26.3185 16.848 25.8625 17.64C25.8145 17.736 25.7665 17.832 25.7185 17.928C25.6705 18 25.6225 18.012 25.5745 17.964C25.5025 17.94 25.4785 17.88 25.5025 17.784C25.5505 17.664 25.5985 17.544 25.6465 17.424C25.8625 16.584 26.2225 15.756 26.7265 14.94C27.2305 14.124 27.7825 13.296 28.3825 12.456C28.6705 12.072 28.9705 11.664 29.2825 11.232C29.6185 10.776 29.9185 10.296 30.1825 9.792C30.4465 9.264 30.6505 8.688 30.7945 8.064C30.9385 7.44 30.9745 6.768 30.9025 6.048C30.8065 5.088 30.4585 4.26 29.8585 3.564C29.2585 2.844 28.5385 2.304 27.6985 1.944C26.8825 1.584 25.9945 1.428 25.0345 1.476C24.0745 1.524 23.1865 1.812 22.3705 2.34C22.2265 2.46 22.1425 2.508 22.1185 2.484C22.0705 2.388 22.1065 2.28 22.2265 2.16C22.4905 1.776 22.9345 1.452 23.5585 1.188C24.2065 0.899999 24.9265 0.755999 25.7185 0.755999C26.5345 0.731999 27.3745 0.875999 28.2385 1.188C29.1265 1.5 29.9545 2.064 30.7225 2.88C31.1065 3.288 31.4065 3.732 31.6225 4.212C31.8385 4.692 31.9825 5.184 32.0545 5.688C32.1505 6.192 32.1865 6.696 32.1625 7.2C32.1625 7.68 32.1265 8.112 32.0545 8.496C31.7905 9.264 31.5145 9.912 31.2265 10.44C30.9385 10.968 30.6985 11.424 30.5065 11.808ZM25.4665 19.692C25.6585 19.668 25.7305 19.68 25.6825 19.728L25.5745 19.836C25.1185 20.028 24.6385 20.028 24.1345 19.836C23.6545 19.62 23.2945 19.2 23.0545 18.576C22.8385 17.952 22.7425 17.316 22.7665 16.668C22.8145 16.02 22.9345 15.408 23.1265 14.832C23.2945 14.256 23.4985 13.716 23.7385 13.212C24.0025 12.684 24.2785 12.18 24.5665 11.7C24.8545 11.22 25.1425 10.764 25.4305 10.332C25.7185 9.9 25.9825 9.492 26.2225 9.108C26.8465 8.1 27.1945 7.308 27.2665 6.732C27.3625 6.156 27.0025 5.628 26.1865 5.148C25.7305 4.98 25.2865 4.92 24.8545 4.968C24.4225 4.992 24.0385 5.1 23.7025 5.292C23.3665 5.484 23.1025 5.736 22.9105 6.048C22.7425 6.36 22.6945 6.708 22.7665 7.092C22.7905 7.236 22.7665 7.272 22.6945 7.2C22.6225 7.128 22.5625 7.068 22.5145 7.02C22.2505 6.588 22.2025 6.144 22.3705 5.688C22.5625 5.232 22.8745 4.848 23.3065 4.536C23.7625 4.2 24.2905 3.984 24.8905 3.888C25.5145 3.792 26.1265 3.9 26.7265 4.212C27.3505 4.524 27.7825 4.908 28.0225 5.364C28.2865 5.82 28.3945 6.312 28.3465 6.84C28.3225 7.344 28.1665 7.884 27.8785 8.46C27.6145 9.036 27.2905 9.588 26.9065 10.116C26.3545 10.836 25.8385 11.64 25.3585 12.528C24.9025 13.392 24.4705 14.316 24.0625 15.3C23.8705 15.78 23.7505 16.296 23.7025 16.848C23.6785 17.4 23.7265 17.916 23.8465 18.396C23.9665 18.852 24.1585 19.212 24.4225 19.476C24.7105 19.74 25.0585 19.812 25.4665 19.692ZM25.0345 18.288C25.1545 18.648 25.3105 18.864 25.5025 18.936C25.6945 19.008 25.8625 19.044 26.0065 19.044C26.1265 19.044 26.1985 19.068 26.2225 19.116C26.2705 19.164 26.2225 19.212 26.0785 19.26C25.9825 19.284 25.8505 19.32 25.6825 19.368C25.5145 19.416 25.3345 19.428 25.1425 19.404C24.9745 19.356 24.7945 19.272 24.6025 19.152C24.4345 19.008 24.3025 18.768 24.2065 18.432C24.1105 18.144 24.0985 17.784 24.1705 17.352C24.2665 16.92 24.3865 16.512 24.5305 16.128C24.6985 15.72 24.8665 15.384 25.0345 15.12C25.2025 14.832 25.3345 14.712 25.4305 14.76C25.4545 14.784 25.4545 14.868 25.4305 15.012C25.4305 15.132 25.4065 15.276 25.3585 15.444C25.3105 15.588 25.2625 15.744 25.2145 15.912C25.1665 16.056 25.1425 16.164 25.1425 16.236C25.0705 16.668 25.0105 17.028 24.9625 17.316C24.9145 17.604 24.9385 17.928 25.0345 18.288ZM24.6385 26.82C24.1105 26.916 23.5825 26.892 23.0545 26.748C22.5265 26.604 22.2025 26.412 22.0825 26.172C22.0345 26.1 22.0345 26.016 22.0825 25.92C22.1545 25.824 22.2505 25.776 22.3705 25.776C22.5865 25.776 22.7665 25.788 22.9105 25.812C23.0545 25.836 23.1985 25.86 23.3425 25.884C23.4865 25.884 23.6425 25.872 23.8105 25.848C24.0025 25.824 24.2305 25.764 24.4945 25.668C24.7585 25.572 25.0345 25.368 25.3225 25.056C25.6345 24.744 25.8505 24.336 25.9705 23.832C25.9705 23.76 26.0185 23.724 26.1145 23.724C26.2105 23.724 26.2825 23.76 26.3305 23.832C26.4985 24.264 26.5465 24.648 26.4745 24.984C26.4265 25.32 26.3065 25.62 26.1145 25.884C25.9225 26.124 25.6825 26.328 25.3945 26.496C25.1305 26.664 24.8785 26.772 24.6385 26.82ZM24.6745 24.84C24.3865 25.056 24.0985 25.152 23.8105 25.128C23.5225 25.08 23.2465 24.984 22.9825 24.84C22.9345 24.84 22.8745 24.816 22.8025 24.768C22.7545 24.72 22.7065 24.66 22.6585 24.588C22.6345 24.54 22.6345 24.492 22.6585 24.444C22.7065 24.372 22.7545 24.324 22.8025 24.3C22.9225 24.228 23.0425 24.18 23.1625 24.156C23.3065 24.132 23.4385 24.06 23.5585 23.94C23.7505 23.82 23.8945 23.676 23.9905 23.508C24.1105 23.316 24.2065 23.148 24.2785 23.004C24.3745 22.86 24.4465 22.752 24.4945 22.68C24.5665 22.584 24.6625 22.548 24.7825 22.572C25.0225 22.644 25.1785 22.776 25.2505 22.968C25.3225 23.16 25.3345 23.376 25.2865 23.616C25.2625 23.856 25.1905 24.096 25.0705 24.336C24.9505 24.552 24.8185 24.72 24.6745 24.84ZM23.1265 22.86C23.2465 22.74 23.3785 22.656 23.5225 22.608C23.6665 22.56 23.7625 22.56 23.8105 22.608C23.8825 22.68 23.8945 22.8 23.8465 22.968C23.7985 23.112 23.7145 23.244 23.5945 23.364C23.4985 23.46 23.3905 23.532 23.2705 23.58C23.1505 23.604 23.0545 23.592 22.9825 23.544C22.9345 23.496 22.9105 23.4 22.9105 23.256C22.9345 23.112 23.0065 22.98 23.1265 22.86Z" fill="#A670ED"/>
<path d="M49.9414 31.3242V21.7383C49.9414 20.1836 49.375 19.4062 48.2422 19.4062C47.7812 19.4062 47.3828 19.5703 47.0469 19.8984C46.7109 20.2188 46.543 20.6094 46.543 21.0703C46.543 21.5312 46.7031 21.9297 47.0234 22.2656C47.3516 22.6016 47.7422 22.7695 48.1953 22.7695C48.5469 22.7695 48.9062 22.625 49.2734 22.3359V27.1641C48.7578 27.2188 48.3672 27.2461 48.1016 27.2461C46.4766 27.2461 45.0703 26.6445 43.8828 25.4414C42.6953 24.2383 42.1016 22.8086 42.1016 21.1523C42.1016 19.4492 42.6992 18.0117 43.8945 16.8398C45.0898 15.668 46.5586 15.082 48.3008 15.082C49.1758 15.082 50.0273 15.2734 50.8555 15.6562C51.6914 16.0391 52.3789 16.5547 52.918 17.2031C53.8555 18.3281 54.3242 19.7852 54.3242 21.5742V31.3242H49.9414ZM56.6445 15.4805H61.0273V22.0781C61.0273 22.7422 61.3047 23.0742 61.8594 23.0742C62.4062 23.0742 62.6797 22.7422 62.6797 22.0781V15.4805H67.0625V21.9961C67.0625 23.5117 66.5586 24.793 65.5508 25.8398C64.543 26.8789 63.3086 27.3984 61.8477 27.3984C60.1836 27.3984 58.8438 26.793 57.8281 25.582C57.0391 24.6367 56.6445 23.3242 56.6445 21.6445V15.4805ZM74.0117 15.3164V27H69.6289V15.3164H74.0117ZM71.832 10.1016C72.4258 10.1016 72.9375 10.3125 73.3672 10.7344C73.8047 11.1484 74.0234 11.6406 74.0234 12.2109C74.0234 12.8203 73.8164 13.3203 73.4023 13.7109C72.9961 14.1016 72.4727 14.2969 71.832 14.2969C71.1914 14.2969 70.6641 14.1016 70.25 13.7109C69.8438 13.3203 69.6406 12.8203 69.6406 12.2109C69.6406 11.6406 69.8555 11.1484 70.2852 10.7344C70.7227 10.3125 71.2383 10.1016 71.832 10.1016ZM86.3398 15.3164L82.7539 22.4062H86.8789V27H75.6172L79.1797 19.8867H75.4766V15.3164H86.3398ZM88.4727 27V16.6172C88.4727 14.7969 89.0156 13.3398 90.1016 12.2461C91.1953 11.1523 92.6484 10.6055 94.4609 10.6055C96.2656 10.6055 97.6445 11.1367 98.5977 12.1992C99.5586 13.2617 100.039 14.7891 100.039 16.7812V27H95.2812V16.7812C95.2812 15.8047 94.9336 15.3164 94.2383 15.3164C93.5664 15.3164 93.2305 15.8047 93.2305 16.7812V27H88.4727ZM106.73 31.3242H102.348V21.5742C102.348 19.7852 102.816 18.3281 103.754 17.2031C104.293 16.5547 104.977 16.0391 105.805 15.6562C106.641 15.2734 107.496 15.082 108.371 15.082C110.113 15.082 111.582 15.668 112.777 16.8398C113.973 18.0117 114.57 19.4492 114.57 21.1523C114.57 22.8086 113.977 24.2383 112.789 25.4414C111.602 26.6445 110.195 27.2461 108.57 27.2461C108.305 27.2461 107.914 27.2188 107.398 27.1641V22.3359C107.758 22.625 108.117 22.7695 108.477 22.7695C108.93 22.7695 109.316 22.6016 109.637 22.2656C109.965 21.9297 110.129 21.5312 110.129 21.0703C110.129 20.6094 109.961 20.2188 109.625 19.8984C109.289 19.5703 108.887 19.4062 108.418 19.4062C107.293 19.4062 106.73 20.1836 106.73 21.7383V31.3242ZM122.047 15.0703C123.703 15.0703 125.121 15.668 126.301 16.8633C127.488 18.0508 128.082 19.4766 128.082 21.1406C128.082 22.8281 127.48 24.2656 126.277 25.4531C125.082 26.6406 123.637 27.2344 121.941 27.2344C120.246 27.2344 118.797 26.6406 117.594 25.4531C116.391 24.2578 115.789 22.8203 115.789 21.1406C115.789 19.4297 116.391 17.9922 117.594 16.8281C118.797 15.6562 120.281 15.0703 122.047 15.0703ZM121.93 19.3945C121.461 19.3945 121.062 19.5664 120.734 19.9102C120.406 20.2461 120.242 20.6602 120.242 21.1523C120.242 21.6367 120.406 22.0508 120.734 22.3945C121.07 22.7383 121.469 22.9102 121.93 22.9102C122.398 22.9102 122.797 22.7383 123.125 22.3945C123.461 22.0508 123.629 21.6367 123.629 21.1523C123.629 20.6602 123.465 20.2461 123.137 19.9102C122.809 19.5664 122.406 19.3945 121.93 19.3945ZM134.035 31.3242H129.652V21.5742C129.652 19.7852 130.121 18.3281 131.059 17.2031C131.598 16.5547 132.281 16.0391 133.109 15.6562C133.945 15.2734 134.801 15.082 135.676 15.082C137.418 15.082 138.887 15.668 140.082 16.8398C141.277 18.0117 141.875 19.4492 141.875 21.1523C141.875 22.8086 141.281 24.2383 140.094 25.4414C138.906 26.6445 137.5 27.2461 135.875 27.2461C135.609 27.2461 135.219 27.2188 134.703 27.1641V22.3359C135.062 22.625 135.422 22.7695 135.781 22.7695C136.234 22.7695 136.621 22.6016 136.941 22.2656C137.27 21.9297 137.434 21.5312 137.434 21.0703C137.434 20.6094 137.266 20.2188 136.93 19.8984C136.594 19.5703 136.191 19.4062 135.723 19.4062C134.598 19.4062 134.035 20.1836 134.035 21.7383V31.3242Z" fill="#A670ED"/>
</svg>
